<svg width="300" height="300" viewBox="0 0 300 300" fill="none" xmlns="http://www.w3.org/2000/svg"><path d="M214.286 0H85.7143C38.3756 0 0 38.3756 0 85.7143V214.286C0 261.624 38.3756 300 85.7143 300H214.286C261.624 300 300 261.624 300 214.286V85.7143C300 38.3756 261.624 0 214.286 0Z" fill="#700da8"/><path d="M83 201h34v29H83zM133 161h34v69h-34zM183 111h34v119h-34z" fill="white"/><path d="M87 126c34-42 70-42 106 0" stroke="white" stroke-width="18" stroke-linecap="round"/><path d="M111 101c25-25 53-25 78 0" stroke="white" stroke-width="14" stroke-linecap="round" opacity=".75"/></svg>
